<svg xmlns="http://www.w3.org/2000/svg" viewBox="0 0 69 48" aria-label="Eavesight">
  <style>
    path, circle { fill: #0a2540; }
    @media (prefers-color-scheme: dark) {
      path, circle { fill: #ffffff; }
    }
  </style>
  <path d="M2.43979 26.9815L0 23.7408L41.3259 0L51.7462 7.98591V2.45058H58.2154V12.9929L68.0225 20.5L65.5683 23.7408L41.3259 5.15758L2.43979 26.9815Z"/>
  <path d="M44.191 38.7126C45.718 37.1856 46.4815 35.3269 46.4815 33.1366C46.4815 30.9463 45.718 29.0877 44.191 27.5606C42.6639 26.0336 40.8053 25.2701 38.615 25.2701C36.4247 25.2701 34.566 26.0336 33.039 27.5606C31.5119 29.0877 30.7484 30.9463 30.7484 33.1366C30.7484 35.3269 31.5119 37.1856 33.039 38.7126C34.566 40.2397 36.4247 41.0032 38.615 41.0032C40.8053 41.0032 42.6639 40.2397 44.191 38.7126ZM35.0634 36.69C34.0942 35.722 33.6095 34.5381 33.6095 33.1385C33.6095 31.7389 34.0936 30.5544 35.0616 29.5851C36.0296 28.6158 37.2135 28.1312 38.6131 28.1312C40.0127 28.1312 41.1972 28.6152 42.1665 29.5833C43.1358 30.5513 43.6204 31.7352 43.6204 33.1348C43.6204 34.5344 43.1364 35.7189 42.1683 36.6881C41.2003 37.6574 40.0164 38.1421 38.6168 38.1421C37.2172 38.1421 36.0327 37.658 35.0634 36.69ZM26.2437 43.3553C22.5594 40.743 19.8115 37.3368 18 33.1366C19.8115 28.9365 22.5594 25.5303 26.2437 22.918C29.9283 20.306 34.0521 19 38.615 19C43.1779 19 47.3016 20.306 50.9863 22.918C54.6706 25.5303 57.4185 28.9365 59.2299 33.1366C57.4185 37.3368 54.6706 40.743 50.9863 43.3553C47.3016 45.9673 43.1779 47.2733 38.615 47.2733C34.0521 47.2733 29.9283 45.9673 26.2437 43.3553ZM48.8942 41.2114C52.0217 39.1908 54.403 36.4992 56.038 33.1366C54.403 29.7741 52.0214 27.0825 48.8933 25.0619C45.7652 23.0412 42.3388 22.0309 38.614 22.0309C34.8893 22.0309 31.4632 23.0412 28.3357 25.0619C25.2082 27.0825 22.8115 29.7741 21.1457 33.1366C22.8115 36.4992 25.2085 39.1908 28.3366 41.2114C31.4647 43.232 34.8912 44.2423 38.6159 44.2423C42.3406 44.2423 45.7667 43.232 48.8942 41.2114Z"/>
  <circle cx="42" cy="30" r="3"/>
</svg>
